Normalized EMG Linear Envelopes
nRows=154
nColumns=4

endheader
time	 med_gas_r	  soleus_r	 tib_ant_r	
4.5	  0.002481	  0.016480	  0.001022	
4.5625	  0.002194	  0.016548	  0.000960	
4.625	  0.001965	  0.016576	  0.000918	
4.6875	  0.001822	  0.016461	  0.000907	
4.75	  0.001752	  0.016115	  0.000930	
4.8125	  0.001729	  0.015560	  0.000984	
4.875	  0.001736	  0.014919	  0.001047	
4.9375	  0.001754	  0.014317	  0.001089	
5	  0.001767	  0.013812	  0.001103	
5.0625	  0.001778	  0.013390	  0.001103	
5.125	  0.001798	  0.013032	  0.001095	
5.1875	  0.001818	  0.012741	  0.001077	
5.25	  0.001803	  0.012479	  0.001051	
5.3125	  0.001703	  0.012125	  0.001032	
5.375	  0.001484	  0.011545	  0.001019	
5.4375	  0.001159	  0.010766	  0.000996	
5.5	  0.000885	  0.010328	  0.000961	
5.5625	  0.001135	  0.011637	  0.000974	
5.625	  0.002755	  0.016881	  0.001166	
5.6875	  0.006785	  0.028111	  0.001694	
5.75	  0.013609	  0.044839	  0.002607	
5.8125	  0.021488	  0.061825	  0.003670	
5.875	  0.027621	  0.073880	  0.004541	
5.9375	  0.032757	  0.085459	  0.005381	
6	  0.041722	  0.107121	  0.006855	
6.0625	  0.056562	  0.138995	  0.009064	
6.125	  0.073213	  0.168674	  0.011029	
6.1875	  0.087089	  0.188377	  0.011865	
6.25	  0.097193	  0.202321	  0.011790	
6.3125	  0.104061	  0.215289	  0.011460	
6.375	  0.108670	  0.226250	  0.011150	
6.4375	  0.113850	  0.235707	  0.010987	
6.5	  0.124060	  0.249246	  0.011195	
6.5625	  0.143537	  0.271769	  0.012036	
6.625	  0.174395	  0.303246	  0.013910	
6.6875	  0.214986	  0.338493	  0.017251	
6.75	  0.258577	  0.368799	  0.021901	
6.8125	  0.294138	  0.386818	  0.026622	
6.875	  0.312028	  0.392348	  0.029710	
6.9375	  0.311357	  0.392689	  0.030403	
7	  0.302365	  0.394709	  0.029476	
7.0625	  0.301898	  0.397770	  0.028514	
7.125	  0.322946	  0.399435	  0.028896	
7.1875	  0.365099	  0.403526	  0.030992	
7.25	  0.416752	  0.414372	  0.033990	
7.3125	  0.464901	  0.428400	  0.036751	
7.375	  0.499633	  0.438924	  0.038712	
7.4375	  0.515830	  0.444368	  0.040042	
7.5	  0.517379	  0.447148	  0.041367	
7.5625	  0.515669	  0.450463	  0.043223	
7.625	  0.520524	  0.459253	  0.045825	
7.6875	  0.534801	  0.477245	  0.049353	
7.75	  0.556513	  0.500898	  0.053500	
7.8125	  0.581308	  0.522277	  0.056930	
7.875	  0.601596	  0.536181	  0.058467	
7.9375	  0.607970	  0.539929	  0.058443	
8	  0.596138	  0.532753	  0.058185	
8.0625	  0.571002	  0.518090	  0.058803	
8.125	  0.542385	  0.500448	  0.060381	
8.1875	  0.519477	  0.483295	  0.061687	
8.25	  0.508305	  0.472117	  0.061360	
8.3125	  0.509659	  0.470502	  0.059650	
8.375	  0.517670	  0.473879	  0.057835	
8.4375	  0.522343	  0.476619	  0.056152	
8.5	  0.517094	  0.482093	  0.054006	
8.5625	  0.505659	  0.496239	  0.051827	
8.625	  0.500315	  0.514555	  0.050824	
8.6875	  0.510335	  0.523968	  0.051020	
8.75	  0.530365	  0.516300	  0.050963	
8.8125	  0.545751	  0.496599	  0.049672	
8.875	  0.552322	  0.479045	  0.048033	
8.9375	  0.559905	  0.474966	  0.047698	
9	  0.574133	  0.486374	  0.049270	
9.0625	  0.589669	  0.509557	  0.052143	
9.125	  0.603079	  0.537494	  0.055659	
9.1875	  0.619693	  0.560035	  0.060083	
9.25	  0.646109	  0.569838	  0.066220	
9.3125	  0.681521	  0.567751	  0.073757	
9.375	  0.715668	  0.559361	  0.080422	
9.4375	  0.737408	  0.550173	  0.083787	
9.5	  0.750335	  0.547112	  0.084107	
9.5625	  0.770350	  0.557531	  0.084004	
9.625	  0.799038	  0.578954	  0.084832	
9.6875	  0.816063	  0.595747	  0.085604	
9.75	  0.807514	  0.594197	  0.085440	
9.8125	  0.782482	  0.575476	  0.084181	
9.875	  0.756979	  0.549107	  0.081493	
9.9375	  0.737039	  0.523526	  0.077361	
10	  0.717256	  0.507308	  0.072267	
10.0625	  0.691814	  0.508382	  0.067065	
10.125	  0.668008	  0.526688	  0.063299	
10.1875	  0.659633	  0.550474	  0.062003	
10.25	  0.666618	  0.560843	  0.062165	
10.3125	  0.676254	  0.545422	  0.061939	
10.375	  0.683467	  0.511062	  0.061010	
10.4375	  0.692778	  0.478170	  0.060584	
10.5	  0.700502	  0.463095	  0.061472	
10.5625	  0.692012	  0.469302	  0.063361	
10.625	  0.659651	  0.490171	  0.065703	
10.6875	  0.614386	  0.513727	  0.068493	
10.75	  0.576890	  0.526553	  0.071588	
10.8125	  0.557962	  0.520790	  0.073040	
10.875	  0.549934	  0.498004	  0.070020	
10.9375	  0.534564	  0.460298	  0.062484	
11	  0.493004	  0.401782	  0.054316	
11.0625	  0.415482	  0.317871	  0.051428	
11.125	  0.310487	  0.219720	  0.058843	
11.1875	  0.201080	  0.130752	  0.075221	
11.25	  0.110589	  0.068712	  0.089767	
11.3125	  0.051362	  0.035233	  0.090089	
11.375	  0.021261	  0.021193	  0.073573	
11.4375	  0.009032	  0.016702	  0.048203	
11.5	  0.004470	  0.015574	  0.024547	
11.5625	  0.002894	  0.015115	  0.008919	
11.625	  0.002734	  0.014747	  0.001815	
11.6875	  0.003165	  0.014560	  0.000344	
11.75	  0.003661	  0.014504	  0.001286	
11.8125	  0.003929	  0.014472	  0.002510	
11.875	  0.003888	  0.014457	  0.003189	
11.9375	  0.003632	  0.014444	  0.003380	
12	  0.003295	  0.014462	  0.003338	
12.0625	  0.003032	  0.014669	  0.003191	
12.125	  0.002990	  0.015138	  0.002996	
12.1875	  0.003177	  0.015649	  0.002764	
12.25	  0.003456	  0.015902	  0.002494	
12.3125	  0.003695	  0.015824	  0.002262	
12.375	  0.003806	  0.015503	  0.002154	
12.4375	  0.003695	  0.015029	  0.002130	
12.5	  0.003370	  0.014531	  0.002077	
12.5625	  0.002998	  0.014127	  0.001975	
12.625	  0.002744	  0.013805	  0.001914	
12.6875	  0.002643	  0.013517	  0.002002	
12.75	  0.002650	  0.013294	  0.002277	
12.8125	  0.002695	  0.013172	  0.002674	
12.875	  0.002702	  0.013102	  0.003005	
12.9375	  0.002642	  0.013057	  0.003029	
13	  0.002553	  0.013117	  0.002690	
13.0625	  0.002478	  0.013336	  0.002209	
13.125	  0.002451	  0.013638	  0.001859	
13.1875	  0.002516	  0.013910	  0.001736	
13.25	  0.002677	  0.014089	  0.001778	
13.3125	  0.002854	  0.014153	  0.001875	
13.375	  0.002939	  0.014123	  0.001947	
13.4375	  0.002880	  0.014081	  0.001963	
13.5	  0.002703	  0.014114	  0.001918	
13.5625	  0.002499	  0.014223	  0.001829	
13.625	  0.002368	  0.014314	  0.001744	
13.6875	  0.002345	  0.014296	  0.001696	
13.75	  0.002378	  0.014157	  0.001669	
13.8125	  0.002396	  0.013982	  0.001627	
13.875	  0.002387	  0.013891	  0.001569	
13.9375	  0.002396	  0.013959	  0.001539	
14	  0.002448	  0.014181	  0.001575	
14.0625	  0.002530	  0.014490	  0.001667	
